<svg width="95" height="95" viewBox="0 0 95 95" fill="none" xmlns="http://www.w3.org/2000/svg">
<rect width="95" height="95" rx="22" fill="black"/>
<path d="M65.5 34.4067H70.5V58.093H65.5V34.4067Z" fill="#DDFB24"/>
<path d="M73 40.0322H78V52.4675H73V40.0322Z" fill="#DDFB24"/>
<path d="M29.5 58.0931H24.5L24.5 34.4067L29.5 34.4067L29.5 58.0931Z" fill="#DDFB24"/>
<path d="M22 52.4676H17L17 40.0323L22 40.0323L22 52.4676Z" fill="#DDFB24"/>
<path d="M39.5 49.4067L32 49.4067V42.9067L39.5 42.9067V49.4067Z" fill="#DDFB24"/>
<path d="M63 49.4067H55.5V42.9067L63 42.9067V49.4067Z" fill="#DDFB24"/>
<path d="M39.8091 49.4067V40.9382L47.3108 54.3933H47.9412L55.1908 41.0488V49.4067H59.6666V31.9067H55.0647L47.689 45.9516L39.9982 31.9067H35.3333V49.4067H39.8091Z" fill="#DDFB24"/>
</svg>
